<svg width="1024" height="1024" viewBox="0 0 1024 1024" fill="none" xmlns="http://www.w3.org/2000/svg">
<path d="M512 128C300.25 128 128 300.25 128 512C128 723.75 300.25 896 512 896C723.75 896 896 723.75 896 512C896 300.25 723.75 128 512 128ZM512 832C335.5 832 192 688.5 192 512C192 335.5 335.5 192 512 192C688.5 192 832 335.5 832 512C832 688.5 688.5 832 512 832Z" fill="#2D3748"/>
<path d="M512 256C370.75 256 256 370.75 256 512C256 653.25 370.75 768 512 768C653.25 768 768 653.25 768 512C768 370.75 653.25 256 512 256ZM608 512L448 608V416L608 512Z" fill="#2D3748"/>
</svg>
